<mxfile host="app.diagrams.net" agent="Mozilla/5.0 (Windows NT 10.0; Win64; x64) AppleWebKit/537.36 (KHTML, like Gecko) Chrome/139.0.0.0 Safari/537.36" version="28.1.0">
  <diagram id="C5RBs43oDa-KdzZeNtuy" name="Page-1">
    <mxGraphModel dx="1727" dy="576" grid="1" gridSize="10" guides="1" tooltips="1" connect="1" arrows="1" fold="1" page="1" pageScale="1" pageWidth="827" pageHeight="1169" math="0" shadow="0">
      <root>
        <mxCell id="WIyWlLk6GJQsqaUBKTNV-0" />
        <mxCell id="WIyWlLk6GJQsqaUBKTNV-1" parent="WIyWlLk6GJQsqaUBKTNV-0" />
        <mxCell id="fYP-xoAzODDI70GAg0PN-0" value="Registro_Funcionario" style="swimlane;fontStyle=1;align=center;verticalAlign=top;childLayout=stackLayout;horizontal=1;startSize=26;horizontalStack=0;resizeParent=1;resizeParentMax=0;resizeLast=0;collapsible=1;marginBottom=0;whiteSpace=wrap;html=1;" parent="WIyWlLk6GJQsqaUBKTNV-1" vertex="1">
          <mxGeometry x="130" y="190" width="180" height="320" as="geometry" />
        </mxCell>
        <mxCell id="fYP-xoAzODDI70GAg0PN-1" value="nome : String&lt;div&gt;dataNasc: Date&lt;/div&gt;&lt;div&gt;matricula: int&lt;/div&gt;&lt;div&gt;&lt;div&gt;cpf : int&amp;nbsp;&lt;/div&gt;&lt;div&gt;n_ficha: int&lt;/div&gt;&lt;div&gt;n_carteira : int&lt;/div&gt;&lt;div&gt;admissao: Date&lt;/div&gt;&lt;div&gt;sexo: String&lt;/div&gt;&lt;div&gt;salario: float&lt;/div&gt;&lt;div&gt;cargo: Cargos&lt;/div&gt;&lt;div&gt;nivelAcesso: Acesso&lt;/div&gt;&lt;div&gt;residencia: String&lt;/div&gt;&lt;div&gt;nacionalidade: String&lt;/div&gt;&lt;div&gt;estadoCivil : String&lt;/div&gt;&lt;/div&gt;&lt;div&gt;filiados: String&lt;/div&gt;&lt;div&gt;senha: int&lt;/div&gt;" style="text;strokeColor=none;fillColor=none;align=left;verticalAlign=top;spacingLeft=4;spacingRight=4;overflow=hidden;rotatable=0;points=[[0,0.5],[1,0.5]];portConstraint=eastwest;whiteSpace=wrap;html=1;" parent="fYP-xoAzODDI70GAg0PN-0" vertex="1">
          <mxGeometry y="26" width="180" height="244" as="geometry" />
        </mxCell>
        <mxCell id="fYP-xoAzODDI70GAg0PN-2" value="" style="line;strokeWidth=1;fillColor=none;align=left;verticalAlign=middle;spacingTop=-1;spacingLeft=3;spacingRight=3;rotatable=0;labelPosition=right;points=[];portConstraint=eastwest;strokeColor=inherit;" parent="fYP-xoAzODDI70GAg0PN-0" vertex="1">
          <mxGeometry y="270" width="180" height="8" as="geometry" />
        </mxCell>
        <mxCell id="fYP-xoAzODDI70GAg0PN-3" value="+ registrarFuncionario&amp;nbsp;( ): void" style="text;strokeColor=none;fillColor=none;align=left;verticalAlign=top;spacingLeft=4;spacingRight=4;overflow=hidden;rotatable=0;points=[[0,0.5],[1,0.5]];portConstraint=eastwest;whiteSpace=wrap;html=1;" parent="fYP-xoAzODDI70GAg0PN-0" vertex="1">
          <mxGeometry y="278" width="180" height="42" as="geometry" />
        </mxCell>
        <mxCell id="fYP-xoAzODDI70GAg0PN-4" value="Login" style="swimlane;fontStyle=1;align=center;verticalAlign=top;childLayout=stackLayout;horizontal=1;startSize=26;horizontalStack=0;resizeParent=1;resizeParentMax=0;resizeLast=0;collapsible=1;marginBottom=0;whiteSpace=wrap;html=1;" parent="WIyWlLk6GJQsqaUBKTNV-1" vertex="1">
          <mxGeometry x="130" y="40" width="180" height="130" as="geometry" />
        </mxCell>
        <mxCell id="fYP-xoAzODDI70GAg0PN-5" value="matricula: int&lt;div&gt;senha: int&lt;/div&gt;" style="text;strokeColor=none;fillColor=none;align=left;verticalAlign=top;spacingLeft=4;spacingRight=4;overflow=hidden;rotatable=0;points=[[0,0.5],[1,0.5]];portConstraint=eastwest;whiteSpace=wrap;html=1;" parent="fYP-xoAzODDI70GAg0PN-4" vertex="1">
          <mxGeometry y="26" width="180" height="54" as="geometry" />
        </mxCell>
        <mxCell id="fYP-xoAzODDI70GAg0PN-6" value="" style="line;strokeWidth=1;fillColor=none;align=left;verticalAlign=middle;spacingTop=-1;spacingLeft=3;spacingRight=3;rotatable=0;labelPosition=right;points=[];portConstraint=eastwest;strokeColor=inherit;" parent="fYP-xoAzODDI70GAg0PN-4" vertex="1">
          <mxGeometry y="80" width="180" height="8" as="geometry" />
        </mxCell>
        <mxCell id="fYP-xoAzODDI70GAg0PN-7" value="+ conectar( ): void" style="text;strokeColor=none;fillColor=none;align=left;verticalAlign=top;spacingLeft=4;spacingRight=4;overflow=hidden;rotatable=0;points=[[0,0.5],[1,0.5]];portConstraint=eastwest;whiteSpace=wrap;html=1;" parent="fYP-xoAzODDI70GAg0PN-4" vertex="1">
          <mxGeometry y="88" width="180" height="42" as="geometry" />
        </mxCell>
        <mxCell id="fYP-xoAzODDI70GAg0PN-9" value="TelaInicial" style="swimlane;fontStyle=1;align=center;verticalAlign=top;childLayout=stackLayout;horizontal=1;startSize=26;horizontalStack=0;resizeParent=1;resizeParentMax=0;resizeLast=0;collapsible=1;marginBottom=0;whiteSpace=wrap;html=1;" parent="WIyWlLk6GJQsqaUBKTNV-1" vertex="1">
          <mxGeometry x="410" y="40" width="240" height="100" as="geometry" />
        </mxCell>
        <mxCell id="fYP-xoAzODDI70GAg0PN-10" value="+ registrarFuncionario () : void&lt;div&gt;+ registrarPonto () : void&lt;/div&gt;&lt;div&gt;+ FolhaPonto () : void&lt;/div&gt;&lt;div&gt;+ FolhaPagamento () : void&lt;/div&gt;&lt;div&gt;&lt;div&gt;&lt;br&gt;&lt;/div&gt;&lt;/div&gt;" style="text;strokeColor=none;fillColor=none;align=left;verticalAlign=top;spacingLeft=4;spacingRight=4;overflow=hidden;rotatable=0;points=[[0,0.5],[1,0.5]];portConstraint=eastwest;whiteSpace=wrap;html=1;" parent="fYP-xoAzODDI70GAg0PN-9" vertex="1">
          <mxGeometry y="26" width="240" height="74" as="geometry" />
        </mxCell>
        <mxCell id="fYP-xoAzODDI70GAg0PN-11" value="FolhaPonto" style="swimlane;fontStyle=1;align=center;verticalAlign=top;childLayout=stackLayout;horizontal=1;startSize=26;horizontalStack=0;resizeParent=1;resizeParentMax=0;resizeLast=0;collapsible=1;marginBottom=0;whiteSpace=wrap;html=1;" parent="WIyWlLk6GJQsqaUBKTNV-1" vertex="1">
          <mxGeometry x="790" y="20" width="340" height="260" as="geometry" />
        </mxCell>
        <mxCell id="fYP-xoAzODDI70GAg0PN-12" value="&lt;div&gt;- id : int&lt;/div&gt;&lt;div&gt;- funcionario : login&lt;/div&gt;&lt;div&gt;- mesReferencia : int&lt;/div&gt;&lt;div&gt;- anoReferencia : int&lt;/div&gt;&lt;div&gt;&lt;span style=&quot;background-color: transparent; color: light-dark(rgb(0, 0, 0), rgb(255, 255, 255));&quot;&gt;- horasNegativas : Double&lt;/span&gt;&lt;/div&gt;&lt;div&gt;&lt;div&gt;&lt;span style=&quot;background-color: transparent; color: light-dark(rgb(0, 0, 0), rgb(255, 255, 255));&quot;&gt;- horasExtras : Double&lt;/span&gt;&lt;/div&gt;&lt;div&gt;&lt;span style=&quot;background-color: transparent; color: light-dark(rgb(0, 0, 0), rgb(255, 255, 255));&quot;&gt;-&amp;nbsp;&lt;/span&gt;&lt;span style=&quot;background-color: transparent; color: light-dark(rgb(0, 0, 0), rgb(255, 255, 255));&quot;&gt;saldoHoras: Double&lt;/span&gt;&lt;/div&gt;&lt;/div&gt;" style="text;strokeColor=none;fillColor=none;align=left;verticalAlign=top;spacingLeft=4;spacingRight=4;overflow=hidden;rotatable=0;points=[[0,0.5],[1,0.5]];portConstraint=eastwest;whiteSpace=wrap;html=1;" parent="fYP-xoAzODDI70GAg0PN-11" vertex="1">
          <mxGeometry y="26" width="340" height="124" as="geometry" />
        </mxCell>
        <mxCell id="fYP-xoAzODDI70GAg0PN-13" value="" style="line;strokeWidth=1;fillColor=none;align=left;verticalAlign=middle;spacingTop=-1;spacingLeft=3;spacingRight=3;rotatable=0;labelPosition=right;points=[];portConstraint=eastwest;strokeColor=inherit;" parent="fYP-xoAzODDI70GAg0PN-11" vertex="1">
          <mxGeometry y="150" width="340" height="8" as="geometry" />
        </mxCell>
        <mxCell id="fYP-xoAzODDI70GAg0PN-14" value="&lt;div&gt;+ calcularTotalHoras() : double&lt;/div&gt;&lt;div&gt;+ calcularHorasExtrasEsperadas(jornadaEsperada : double) : void&lt;/div&gt;&lt;div&gt;+ calcularHorasFaltantes(jornadaEsperada : double) : void&lt;/div&gt;&lt;div&gt;+ getResumoPontoMensal() : String&lt;/div&gt;" style="text;strokeColor=none;fillColor=none;align=left;verticalAlign=top;spacingLeft=4;spacingRight=4;overflow=hidden;rotatable=0;points=[[0,0.5],[1,0.5]];portConstraint=eastwest;whiteSpace=wrap;html=1;" parent="fYP-xoAzODDI70GAg0PN-11" vertex="1">
          <mxGeometry y="158" width="340" height="102" as="geometry" />
        </mxCell>
        <mxCell id="fYP-xoAzODDI70GAg0PN-15" value="RegistrarPonto" style="swimlane;fontStyle=1;align=center;verticalAlign=top;childLayout=stackLayout;horizontal=1;startSize=26;horizontalStack=0;resizeParent=1;resizeParentMax=0;resizeLast=0;collapsible=1;marginBottom=0;whiteSpace=wrap;html=1;" parent="WIyWlLk6GJQsqaUBKTNV-1" vertex="1">
          <mxGeometry x="1190" y="50" width="310" height="260" as="geometry" />
        </mxCell>
        <mxCell id="fYP-xoAzODDI70GAg0PN-16" value="&lt;div&gt;- data :&amp;nbsp;&lt;span style=&quot;background-color: transparent; color: light-dark(rgb(0, 0, 0), rgb(255, 255, 255));&quot;&gt;Date&lt;/span&gt;&lt;/div&gt;&lt;div&gt;- HoraEntrada: LocalTime&lt;/div&gt;&lt;div&gt;- EntradaAlmoco: LocalTime&lt;/div&gt;&lt;div&gt;- SaidaAlmoco : LocalTime&lt;/div&gt;&lt;div&gt;- HoraSaida : LocalTime&lt;/div&gt;&lt;div&gt;- funcionario : login&lt;/div&gt;" style="text;strokeColor=none;fillColor=none;align=left;verticalAlign=top;spacingLeft=4;spacingRight=4;overflow=hidden;rotatable=0;points=[[0,0.5],[1,0.5]];portConstraint=eastwest;whiteSpace=wrap;html=1;" parent="fYP-xoAzODDI70GAg0PN-15" vertex="1">
          <mxGeometry y="26" width="310" height="104" as="geometry" />
        </mxCell>
        <mxCell id="fYP-xoAzODDI70GAg0PN-17" value="" style="line;strokeWidth=1;fillColor=none;align=left;verticalAlign=middle;spacingTop=-1;spacingLeft=3;spacingRight=3;rotatable=0;labelPosition=right;points=[];portConstraint=eastwest;strokeColor=inherit;" parent="fYP-xoAzODDI70GAg0PN-15" vertex="1">
          <mxGeometry y="130" width="310" height="8" as="geometry" />
        </mxCell>
        <mxCell id="fYP-xoAzODDI70GAg0PN-18" value="&lt;div&gt;+ registrarEntrada(hora : LocalTime) : void&lt;/div&gt;&lt;div&gt;+ registrarEntradaAlmoco(hora : LocalTime) : void&lt;/div&gt;&lt;div&gt;+ registrarSaidaAlmoco(hora : LocalTime) : void&lt;/div&gt;&lt;div&gt;+ registrarSaida(hora : LocalTime) : void&lt;/div&gt;&lt;div&gt;+ calcularTotalHorasTrabalhadas() : Duration&lt;/div&gt;&lt;div&gt;&lt;span style=&quot;background-color: transparent; color: light-dark(rgb(0, 0, 0), rgb(255, 255, 255));&quot;&gt;+ isPontoCompleto() : boolean&lt;/span&gt;&lt;/div&gt;&lt;div&gt;+ resumoDoDia() : String&lt;/div&gt;" style="text;strokeColor=none;fillColor=none;align=left;verticalAlign=top;spacingLeft=4;spacingRight=4;overflow=hidden;rotatable=0;points=[[0,0.5],[1,0.5]];portConstraint=eastwest;whiteSpace=wrap;html=1;" parent="fYP-xoAzODDI70GAg0PN-15" vertex="1">
          <mxGeometry y="138" width="310" height="122" as="geometry" />
        </mxCell>
        <mxCell id="fYP-xoAzODDI70GAg0PN-19" value="FolhaPagamento" style="swimlane;fontStyle=1;align=center;verticalAlign=top;childLayout=stackLayout;horizontal=1;startSize=26;horizontalStack=0;resizeParent=1;resizeParentMax=0;resizeLast=0;collapsible=1;marginBottom=0;whiteSpace=wrap;html=1;" parent="WIyWlLk6GJQsqaUBKTNV-1" vertex="1">
          <mxGeometry x="1240" y="475" width="220" height="290" as="geometry" />
        </mxCell>
        <mxCell id="fYP-xoAzODDI70GAg0PN-20" value="&lt;div&gt;idFolha : int&lt;/div&gt;&lt;div&gt;mesReferencia : int&lt;/div&gt;&lt;div&gt;anoReferencia : int&lt;/div&gt;&lt;div&gt;salarioBruto : double&lt;/div&gt;&lt;div&gt;proventosExtras : double&lt;/div&gt;&lt;div&gt;totalBeneficios : BeneficioFolha&lt;/div&gt;&lt;div&gt;totalDescontos :&amp;nbsp;&lt;span style=&quot;font-weight: 700; text-align: center; background-color: transparent; color: light-dark(rgb(0, 0, 0), rgb(255, 255, 255));&quot;&gt;DescontoFolha&lt;/span&gt;&lt;/div&gt;&lt;div&gt;salarioLiquido : double&lt;/div&gt;&lt;div&gt;&lt;span style=&quot;background-color: transparent; color: light-dark(rgb(0, 0, 0), rgb(255, 255, 255));&quot;&gt;formaPagamento : FormaPagamento&lt;/span&gt;&lt;/div&gt;&lt;div&gt;contaBancaria : String&lt;/div&gt;&lt;div&gt;dataPagamento : Date&lt;/div&gt;&lt;div&gt;&lt;span style=&quot;background-color: transparent; color: light-dark(rgb(0, 0, 0), rgb(255, 255, 255));&quot;&gt;funcionario : Registro_Funcionario&lt;/span&gt;&lt;/div&gt;&lt;div&gt;&lt;br&gt;&lt;/div&gt;" style="text;strokeColor=none;fillColor=none;align=left;verticalAlign=top;spacingLeft=4;spacingRight=4;overflow=hidden;rotatable=0;points=[[0,0.5],[1,0.5]];portConstraint=eastwest;whiteSpace=wrap;html=1;" parent="fYP-xoAzODDI70GAg0PN-19" vertex="1">
          <mxGeometry y="26" width="220" height="194" as="geometry" />
        </mxCell>
        <mxCell id="fYP-xoAzODDI70GAg0PN-21" value="" style="line;strokeWidth=1;fillColor=none;align=left;verticalAlign=middle;spacingTop=-1;spacingLeft=3;spacingRight=3;rotatable=0;labelPosition=right;points=[];portConstraint=eastwest;strokeColor=inherit;" parent="fYP-xoAzODDI70GAg0PN-19" vertex="1">
          <mxGeometry y="220" width="220" height="8" as="geometry" />
        </mxCell>
        <mxCell id="fYP-xoAzODDI70GAg0PN-22" value="" style="line;strokeWidth=1;fillColor=none;align=left;verticalAlign=middle;spacingTop=-1;spacingLeft=3;spacingRight=3;rotatable=0;labelPosition=right;points=[];portConstraint=eastwest;strokeColor=inherit;" parent="fYP-xoAzODDI70GAg0PN-19" vertex="1">
          <mxGeometry y="228" width="220" as="geometry" />
        </mxCell>
        <mxCell id="fYP-xoAzODDI70GAg0PN-23" value="&lt;div&gt;+ calcularTotalBeneficios() : double&lt;/div&gt;&lt;div&gt;+ calcularTotalDescontos() : double&lt;/div&gt;&lt;div&gt;+ calcularSalarioLiquido() : double&lt;/div&gt;" style="text;strokeColor=none;fillColor=none;align=left;verticalAlign=top;spacingLeft=4;spacingRight=4;overflow=hidden;rotatable=0;points=[[0,0.5],[1,0.5]];portConstraint=eastwest;whiteSpace=wrap;html=1;" parent="fYP-xoAzODDI70GAg0PN-19" vertex="1">
          <mxGeometry y="228" width="220" height="62" as="geometry" />
        </mxCell>
        <mxCell id="fYP-xoAzODDI70GAg0PN-24" style="edgeStyle=orthogonalEdgeStyle;rounded=0;orthogonalLoop=1;jettySize=auto;html=1;exitX=0.5;exitY=0;exitDx=0;exitDy=0;entryX=0.587;entryY=-0.03;entryDx=0;entryDy=0;entryPerimeter=0;" parent="WIyWlLk6GJQsqaUBKTNV-1" source="fYP-xoAzODDI70GAg0PN-19" target="fYP-xoAzODDI70GAg0PN-19" edge="1">
          <mxGeometry relative="1" as="geometry" />
        </mxCell>
        <mxCell id="GPqqSzToRLyQ76lssUQ2-6" value="Cargos" style="swimlane;fontStyle=1;align=center;verticalAlign=top;childLayout=stackLayout;horizontal=1;startSize=26;horizontalStack=0;resizeParent=1;resizeParentMax=0;resizeLast=0;collapsible=1;marginBottom=0;whiteSpace=wrap;html=1;" vertex="1" parent="WIyWlLk6GJQsqaUBKTNV-1">
          <mxGeometry x="380" y="660" width="180" height="170" as="geometry" />
        </mxCell>
        <mxCell id="GPqqSzToRLyQ76lssUQ2-7" value="idCargo : int&lt;div&gt;nomeCargo : String&lt;/div&gt;&lt;div&gt;descricao: String&lt;/div&gt;&lt;div&gt;salarioBase : String&lt;/div&gt;&lt;div&gt;nivelAcesso: NivelAcesso&lt;/div&gt;" style="text;strokeColor=none;fillColor=none;align=left;verticalAlign=top;spacingLeft=4;spacingRight=4;overflow=hidden;rotatable=0;points=[[0,0.5],[1,0.5]];portConstraint=eastwest;whiteSpace=wrap;html=1;" vertex="1" parent="GPqqSzToRLyQ76lssUQ2-6">
          <mxGeometry y="26" width="180" height="94" as="geometry" />
        </mxCell>
        <mxCell id="GPqqSzToRLyQ76lssUQ2-8" value="" style="line;strokeWidth=1;fillColor=none;align=left;verticalAlign=middle;spacingTop=-1;spacingLeft=3;spacingRight=3;rotatable=0;labelPosition=right;points=[];portConstraint=eastwest;strokeColor=inherit;" vertex="1" parent="GPqqSzToRLyQ76lssUQ2-6">
          <mxGeometry y="120" width="180" height="8" as="geometry" />
        </mxCell>
        <mxCell id="GPqqSzToRLyQ76lssUQ2-9" value="+ registrarFuncionario&amp;nbsp;( ): void" style="text;strokeColor=none;fillColor=none;align=left;verticalAlign=top;spacingLeft=4;spacingRight=4;overflow=hidden;rotatable=0;points=[[0,0.5],[1,0.5]];portConstraint=eastwest;whiteSpace=wrap;html=1;" vertex="1" parent="GPqqSzToRLyQ76lssUQ2-6">
          <mxGeometry y="128" width="180" height="42" as="geometry" />
        </mxCell>
        <mxCell id="GPqqSzToRLyQ76lssUQ2-10" value="&lt;span style=&quot;font-family: Tahoma; font-weight: 700;&quot;&gt;&amp;lt;&amp;lt;enumeration&amp;gt;&amp;gt;&lt;/span&gt;&lt;div style=&quot;font-family: Tahoma; font-weight: 700;&quot;&gt;acesso&lt;/div&gt;" style="swimlane;fontStyle=0;childLayout=stackLayout;horizontal=1;startSize=40;horizontalStack=0;resizeParent=1;resizeParentMax=0;resizeLast=0;collapsible=1;marginBottom=0;whiteSpace=wrap;html=1;" vertex="1" parent="WIyWlLk6GJQsqaUBKTNV-1">
          <mxGeometry x="130" y="510" width="180" height="190" as="geometry" />
        </mxCell>
        <mxCell id="GPqqSzToRLyQ76lssUQ2-11" value="DIRETOR" style="text;strokeColor=none;fillColor=none;align=left;verticalAlign=middle;spacingLeft=4;spacingRight=4;overflow=hidden;points=[[0,0.5],[1,0.5]];portConstraint=eastwest;rotatable=0;whiteSpace=wrap;html=1;" vertex="1" parent="GPqqSzToRLyQ76lssUQ2-10">
          <mxGeometry y="40" width="180" height="30" as="geometry" />
        </mxCell>
        <mxCell id="GPqqSzToRLyQ76lssUQ2-12" value="GESTOR" style="text;strokeColor=none;fillColor=none;align=left;verticalAlign=middle;spacingLeft=4;spacingRight=4;overflow=hidden;points=[[0,0.5],[1,0.5]];portConstraint=eastwest;rotatable=0;whiteSpace=wrap;html=1;" vertex="1" parent="GPqqSzToRLyQ76lssUQ2-10">
          <mxGeometry y="70" width="180" height="30" as="geometry" />
        </mxCell>
        <mxCell id="GPqqSzToRLyQ76lssUQ2-13" value="FUNCIONARIO" style="text;strokeColor=none;fillColor=none;align=left;verticalAlign=middle;spacingLeft=4;spacingRight=4;overflow=hidden;points=[[0,0.5],[1,0.5]];portConstraint=eastwest;rotatable=0;whiteSpace=wrap;html=1;" vertex="1" parent="GPqqSzToRLyQ76lssUQ2-10">
          <mxGeometry y="100" width="180" height="30" as="geometry" />
        </mxCell>
        <mxCell id="GPqqSzToRLyQ76lssUQ2-14" value="ESTAGIARIO" style="text;strokeColor=none;fillColor=none;align=left;verticalAlign=middle;spacingLeft=4;spacingRight=4;overflow=hidden;points=[[0,0.5],[1,0.5]];portConstraint=eastwest;rotatable=0;whiteSpace=wrap;html=1;" vertex="1" parent="GPqqSzToRLyQ76lssUQ2-10">
          <mxGeometry y="130" width="180" height="30" as="geometry" />
        </mxCell>
        <mxCell id="GPqqSzToRLyQ76lssUQ2-15" value="APRENDIZ" style="text;strokeColor=none;fillColor=none;align=left;verticalAlign=middle;spacingLeft=4;spacingRight=4;overflow=hidden;points=[[0,0.5],[1,0.5]];portConstraint=eastwest;rotatable=0;whiteSpace=wrap;html=1;" vertex="1" parent="GPqqSzToRLyQ76lssUQ2-10">
          <mxGeometry y="160" width="180" height="30" as="geometry" />
        </mxCell>
        <mxCell id="GPqqSzToRLyQ76lssUQ2-17" value="Departamentos" style="swimlane;fontStyle=1;align=center;verticalAlign=top;childLayout=stackLayout;horizontal=1;startSize=26;horizontalStack=0;resizeParent=1;resizeParentMax=0;resizeLast=0;collapsible=1;marginBottom=0;whiteSpace=wrap;html=1;" vertex="1" parent="WIyWlLk6GJQsqaUBKTNV-1">
          <mxGeometry x="380" y="200" width="200" height="150" as="geometry" />
        </mxCell>
        <mxCell id="GPqqSzToRLyQ76lssUQ2-18" value="idDepto : int&lt;div&gt;nome : String&lt;/div&gt;&lt;div&gt;descricao : String&lt;/div&gt;&lt;div&gt;responsavel : String&lt;/div&gt;&lt;div&gt;&lt;br&gt;&lt;/div&gt;" style="text;strokeColor=none;fillColor=none;align=left;verticalAlign=top;spacingLeft=4;spacingRight=4;overflow=hidden;rotatable=0;points=[[0,0.5],[1,0.5]];portConstraint=eastwest;whiteSpace=wrap;html=1;" vertex="1" parent="GPqqSzToRLyQ76lssUQ2-17">
          <mxGeometry y="26" width="200" height="74" as="geometry" />
        </mxCell>
        <mxCell id="GPqqSzToRLyQ76lssUQ2-19" value="" style="line;strokeWidth=1;fillColor=none;align=left;verticalAlign=middle;spacingTop=-1;spacingLeft=3;spacingRight=3;rotatable=0;labelPosition=right;points=[];portConstraint=eastwest;strokeColor=inherit;" vertex="1" parent="GPqqSzToRLyQ76lssUQ2-17">
          <mxGeometry y="100" width="200" height="8" as="geometry" />
        </mxCell>
        <mxCell id="GPqqSzToRLyQ76lssUQ2-20" value="+ registrarDepartamento ( ): void" style="text;strokeColor=none;fillColor=none;align=left;verticalAlign=top;spacingLeft=4;spacingRight=4;overflow=hidden;rotatable=0;points=[[0,0.5],[1,0.5]];portConstraint=eastwest;whiteSpace=wrap;html=1;" vertex="1" parent="GPqqSzToRLyQ76lssUQ2-17">
          <mxGeometry y="108" width="200" height="42" as="geometry" />
        </mxCell>
        <mxCell id="GPqqSzToRLyQ76lssUQ2-21" value="Historico_Funcionario" style="swimlane;fontStyle=1;align=center;verticalAlign=top;childLayout=stackLayout;horizontal=1;startSize=26;horizontalStack=0;resizeParent=1;resizeParentMax=0;resizeLast=0;collapsible=1;marginBottom=0;whiteSpace=wrap;html=1;" vertex="1" parent="WIyWlLk6GJQsqaUBKTNV-1">
          <mxGeometry x="380" y="390" width="200" height="180" as="geometry" />
        </mxCell>
        <mxCell id="GPqqSzToRLyQ76lssUQ2-22" value="&lt;div&gt;idHistorico : String&lt;/div&gt;&lt;div&gt;funcionario : login&lt;/div&gt;&lt;div&gt;dataAlteracao : Date&lt;/div&gt;&lt;div&gt;alteracao : String&lt;/div&gt;&lt;div&gt;salarioAnterior : float&lt;/div&gt;&lt;div&gt;salarioAtual : float&lt;/div&gt;&lt;div&gt;&lt;br&gt;&lt;/div&gt;" style="text;strokeColor=none;fillColor=none;align=left;verticalAlign=top;spacingLeft=4;spacingRight=4;overflow=hidden;rotatable=0;points=[[0,0.5],[1,0.5]];portConstraint=eastwest;whiteSpace=wrap;html=1;" vertex="1" parent="GPqqSzToRLyQ76lssUQ2-21">
          <mxGeometry y="26" width="200" height="104" as="geometry" />
        </mxCell>
        <mxCell id="GPqqSzToRLyQ76lssUQ2-23" value="" style="line;strokeWidth=1;fillColor=none;align=left;verticalAlign=middle;spacingTop=-1;spacingLeft=3;spacingRight=3;rotatable=0;labelPosition=right;points=[];portConstraint=eastwest;strokeColor=inherit;" vertex="1" parent="GPqqSzToRLyQ76lssUQ2-21">
          <mxGeometry y="130" width="200" height="8" as="geometry" />
        </mxCell>
        <mxCell id="GPqqSzToRLyQ76lssUQ2-24" value="+ alterarHistorico ( ): void" style="text;strokeColor=none;fillColor=none;align=left;verticalAlign=top;spacingLeft=4;spacingRight=4;overflow=hidden;rotatable=0;points=[[0,0.5],[1,0.5]];portConstraint=eastwest;whiteSpace=wrap;html=1;" vertex="1" parent="GPqqSzToRLyQ76lssUQ2-21">
          <mxGeometry y="138" width="200" height="42" as="geometry" />
        </mxCell>
        <mxCell id="GPqqSzToRLyQ76lssUQ2-25" value="ControleAusencias" style="swimlane;fontStyle=1;align=center;verticalAlign=top;childLayout=stackLayout;horizontal=1;startSize=26;horizontalStack=0;resizeParent=1;resizeParentMax=0;resizeLast=0;collapsible=1;marginBottom=0;whiteSpace=wrap;html=1;" vertex="1" parent="WIyWlLk6GJQsqaUBKTNV-1">
          <mxGeometry x="640" y="390" width="200" height="180" as="geometry" />
        </mxCell>
        <mxCell id="GPqqSzToRLyQ76lssUQ2-26" value="&lt;div&gt;idAusencia : int&lt;/div&gt;&lt;div&gt;funcionario : login&lt;/div&gt;&lt;div&gt;tipoAusencia : String&lt;/div&gt;&lt;div&gt;dataInicio : Date&lt;/div&gt;&lt;div&gt;dataFim : Date&lt;/div&gt;&lt;div&gt;status : String&lt;/div&gt;" style="text;strokeColor=none;fillColor=none;align=left;verticalAlign=top;spacingLeft=4;spacingRight=4;overflow=hidden;rotatable=0;points=[[0,0.5],[1,0.5]];portConstraint=eastwest;whiteSpace=wrap;html=1;" vertex="1" parent="GPqqSzToRLyQ76lssUQ2-25">
          <mxGeometry y="26" width="200" height="104" as="geometry" />
        </mxCell>
        <mxCell id="GPqqSzToRLyQ76lssUQ2-27" value="" style="line;strokeWidth=1;fillColor=none;align=left;verticalAlign=middle;spacingTop=-1;spacingLeft=3;spacingRight=3;rotatable=0;labelPosition=right;points=[];portConstraint=eastwest;strokeColor=inherit;" vertex="1" parent="GPqqSzToRLyQ76lssUQ2-25">
          <mxGeometry y="130" width="200" height="8" as="geometry" />
        </mxCell>
        <mxCell id="GPqqSzToRLyQ76lssUQ2-28" value="+ controleAusencias ( ): void" style="text;strokeColor=none;fillColor=none;align=left;verticalAlign=top;spacingLeft=4;spacingRight=4;overflow=hidden;rotatable=0;points=[[0,0.5],[1,0.5]];portConstraint=eastwest;whiteSpace=wrap;html=1;" vertex="1" parent="GPqqSzToRLyQ76lssUQ2-25">
          <mxGeometry y="138" width="200" height="42" as="geometry" />
        </mxCell>
        <mxCell id="GPqqSzToRLyQ76lssUQ2-29" value="&lt;span style=&quot;font-family: Tahoma; font-weight: 700;&quot;&gt;&amp;lt;&amp;lt;enumeration&amp;gt;&amp;gt;&lt;/span&gt;&lt;div style=&quot;font-family: Tahoma; font-weight: 700;&quot;&gt;&lt;span style=&quot;font-family: Helvetica; font-weight: 400; text-align: left;&quot;&gt;FormaPagamento&lt;/span&gt;&lt;/div&gt;" style="swimlane;fontStyle=0;childLayout=stackLayout;horizontal=1;startSize=40;horizontalStack=0;resizeParent=1;resizeParentMax=0;resizeLast=0;collapsible=1;marginBottom=0;whiteSpace=wrap;html=1;" vertex="1" parent="WIyWlLk6GJQsqaUBKTNV-1">
          <mxGeometry x="1484" y="580" width="170" height="160" as="geometry" />
        </mxCell>
        <mxCell id="GPqqSzToRLyQ76lssUQ2-30" value="PIX" style="text;strokeColor=none;fillColor=none;align=left;verticalAlign=middle;spacingLeft=4;spacingRight=4;overflow=hidden;points=[[0,0.5],[1,0.5]];portConstraint=eastwest;rotatable=0;whiteSpace=wrap;html=1;" vertex="1" parent="GPqqSzToRLyQ76lssUQ2-29">
          <mxGeometry y="40" width="170" height="30" as="geometry" />
        </mxCell>
        <mxCell id="GPqqSzToRLyQ76lssUQ2-31" value="TRANSFERENCIA" style="text;strokeColor=none;fillColor=none;align=left;verticalAlign=middle;spacingLeft=4;spacingRight=4;overflow=hidden;points=[[0,0.5],[1,0.5]];portConstraint=eastwest;rotatable=0;whiteSpace=wrap;html=1;" vertex="1" parent="GPqqSzToRLyQ76lssUQ2-29">
          <mxGeometry y="70" width="170" height="30" as="geometry" />
        </mxCell>
        <mxCell id="GPqqSzToRLyQ76lssUQ2-32" value="CHEQUE" style="text;strokeColor=none;fillColor=none;align=left;verticalAlign=middle;spacingLeft=4;spacingRight=4;overflow=hidden;points=[[0,0.5],[1,0.5]];portConstraint=eastwest;rotatable=0;whiteSpace=wrap;html=1;" vertex="1" parent="GPqqSzToRLyQ76lssUQ2-29">
          <mxGeometry y="100" width="170" height="30" as="geometry" />
        </mxCell>
        <mxCell id="GPqqSzToRLyQ76lssUQ2-33" value="DINHEIRO" style="text;strokeColor=none;fillColor=none;align=left;verticalAlign=middle;spacingLeft=4;spacingRight=4;overflow=hidden;points=[[0,0.5],[1,0.5]];portConstraint=eastwest;rotatable=0;whiteSpace=wrap;html=1;" vertex="1" parent="GPqqSzToRLyQ76lssUQ2-29">
          <mxGeometry y="130" width="170" height="30" as="geometry" />
        </mxCell>
        <mxCell id="GPqqSzToRLyQ76lssUQ2-35" value="BeneficioFolha" style="swimlane;fontStyle=1;align=center;verticalAlign=top;childLayout=stackLayout;horizontal=1;startSize=26;horizontalStack=0;resizeParent=1;resizeParentMax=0;resizeLast=0;collapsible=1;marginBottom=0;whiteSpace=wrap;html=1;" vertex="1" parent="WIyWlLk6GJQsqaUBKTNV-1">
          <mxGeometry x="980" y="530" width="210" height="108" as="geometry" />
        </mxCell>
        <mxCell id="GPqqSzToRLyQ76lssUQ2-36" value="&lt;div&gt;id : int&lt;/div&gt;&lt;div&gt;tipoBeneficio : Beneficio&lt;/div&gt;&lt;div&gt;valor : double&lt;/div&gt;&lt;div&gt;folhaPagamento : FolhaPagamento&lt;/div&gt;" style="text;strokeColor=none;fillColor=none;align=left;verticalAlign=top;spacingLeft=4;spacingRight=4;overflow=hidden;rotatable=0;points=[[0,0.5],[1,0.5]];portConstraint=eastwest;whiteSpace=wrap;html=1;" vertex="1" parent="GPqqSzToRLyQ76lssUQ2-35">
          <mxGeometry y="26" width="210" height="74" as="geometry" />
        </mxCell>
        <mxCell id="GPqqSzToRLyQ76lssUQ2-37" value="" style="line;strokeWidth=1;fillColor=none;align=left;verticalAlign=middle;spacingTop=-1;spacingLeft=3;spacingRight=3;rotatable=0;labelPosition=right;points=[];portConstraint=eastwest;strokeColor=inherit;" vertex="1" parent="GPqqSzToRLyQ76lssUQ2-35">
          <mxGeometry y="100" width="210" height="8" as="geometry" />
        </mxCell>
        <mxCell id="GPqqSzToRLyQ76lssUQ2-39" value="DescontoFolha" style="swimlane;fontStyle=1;align=center;verticalAlign=top;childLayout=stackLayout;horizontal=1;startSize=26;horizontalStack=0;resizeParent=1;resizeParentMax=0;resizeLast=0;collapsible=1;marginBottom=0;whiteSpace=wrap;html=1;" vertex="1" parent="WIyWlLk6GJQsqaUBKTNV-1">
          <mxGeometry x="980" y="680" width="210" height="108" as="geometry" />
        </mxCell>
        <mxCell id="GPqqSzToRLyQ76lssUQ2-40" value="&lt;div&gt;id : int&lt;/div&gt;&lt;div&gt;tipoDesconto : Desconto&lt;/div&gt;&lt;div&gt;valor : double&lt;/div&gt;&lt;div&gt;folhaPagamento : FolhaPagamento&lt;/div&gt;" style="text;strokeColor=none;fillColor=none;align=left;verticalAlign=top;spacingLeft=4;spacingRight=4;overflow=hidden;rotatable=0;points=[[0,0.5],[1,0.5]];portConstraint=eastwest;whiteSpace=wrap;html=1;" vertex="1" parent="GPqqSzToRLyQ76lssUQ2-39">
          <mxGeometry y="26" width="210" height="74" as="geometry" />
        </mxCell>
        <mxCell id="GPqqSzToRLyQ76lssUQ2-41" value="" style="line;strokeWidth=1;fillColor=none;align=left;verticalAlign=middle;spacingTop=-1;spacingLeft=3;spacingRight=3;rotatable=0;labelPosition=right;points=[];portConstraint=eastwest;strokeColor=inherit;" vertex="1" parent="GPqqSzToRLyQ76lssUQ2-39">
          <mxGeometry y="100" width="210" height="8" as="geometry" />
        </mxCell>
        <mxCell id="GPqqSzToRLyQ76lssUQ2-42" value="&lt;span style=&quot;font-family: Tahoma; font-weight: 700;&quot;&gt;&amp;lt;&amp;lt;enumeration&amp;gt;&amp;gt;&lt;/span&gt;&lt;div style=&quot;font-family: Tahoma; font-weight: 700;&quot;&gt;Beneficio&lt;/div&gt;" style="swimlane;fontStyle=0;childLayout=stackLayout;horizontal=1;startSize=40;horizontalStack=0;resizeParent=1;resizeParentMax=0;resizeLast=0;collapsible=1;marginBottom=0;whiteSpace=wrap;html=1;" vertex="1" parent="WIyWlLk6GJQsqaUBKTNV-1">
          <mxGeometry x="1410" y="810" width="170" height="130" as="geometry" />
        </mxCell>
        <mxCell id="GPqqSzToRLyQ76lssUQ2-43" value="VALE_ALIMENTACAO" style="text;strokeColor=none;fillColor=none;align=left;verticalAlign=middle;spacingLeft=4;spacingRight=4;overflow=hidden;points=[[0,0.5],[1,0.5]];portConstraint=eastwest;rotatable=0;whiteSpace=wrap;html=1;" vertex="1" parent="GPqqSzToRLyQ76lssUQ2-42">
          <mxGeometry y="40" width="170" height="30" as="geometry" />
        </mxCell>
        <mxCell id="GPqqSzToRLyQ76lssUQ2-44" value="VALE_REFEICAO" style="text;strokeColor=none;fillColor=none;align=left;verticalAlign=middle;spacingLeft=4;spacingRight=4;overflow=hidden;points=[[0,0.5],[1,0.5]];portConstraint=eastwest;rotatable=0;whiteSpace=wrap;html=1;" vertex="1" parent="GPqqSzToRLyQ76lssUQ2-42">
          <mxGeometry y="70" width="170" height="30" as="geometry" />
        </mxCell>
        <mxCell id="GPqqSzToRLyQ76lssUQ2-45" value="PLANO_SAUDE" style="text;strokeColor=none;fillColor=none;align=left;verticalAlign=middle;spacingLeft=4;spacingRight=4;overflow=hidden;points=[[0,0.5],[1,0.5]];portConstraint=eastwest;rotatable=0;whiteSpace=wrap;html=1;" vertex="1" parent="GPqqSzToRLyQ76lssUQ2-42">
          <mxGeometry y="100" width="170" height="30" as="geometry" />
        </mxCell>
        <mxCell id="GPqqSzToRLyQ76lssUQ2-47" value="&lt;span style=&quot;font-family: Tahoma; font-weight: 700;&quot;&gt;&amp;lt;&amp;lt;enumeration&amp;gt;&amp;gt;&lt;/span&gt;&lt;div style=&quot;font-family: Tahoma; font-weight: 700;&quot;&gt;Desconto&lt;/div&gt;" style="swimlane;fontStyle=0;childLayout=stackLayout;horizontal=1;startSize=40;horizontalStack=0;resizeParent=1;resizeParentMax=0;resizeLast=0;collapsible=1;marginBottom=0;whiteSpace=wrap;html=1;" vertex="1" parent="WIyWlLk6GJQsqaUBKTNV-1">
          <mxGeometry x="1200" y="810" width="170" height="190" as="geometry" />
        </mxCell>
        <mxCell id="GPqqSzToRLyQ76lssUQ2-48" value="INSS" style="text;strokeColor=none;fillColor=none;align=left;verticalAlign=middle;spacingLeft=4;spacingRight=4;overflow=hidden;points=[[0,0.5],[1,0.5]];portConstraint=eastwest;rotatable=0;whiteSpace=wrap;html=1;" vertex="1" parent="GPqqSzToRLyQ76lssUQ2-47">
          <mxGeometry y="40" width="170" height="30" as="geometry" />
        </mxCell>
        <mxCell id="GPqqSzToRLyQ76lssUQ2-49" value="FGTS" style="text;strokeColor=none;fillColor=none;align=left;verticalAlign=middle;spacingLeft=4;spacingRight=4;overflow=hidden;points=[[0,0.5],[1,0.5]];portConstraint=eastwest;rotatable=0;whiteSpace=wrap;html=1;" vertex="1" parent="GPqqSzToRLyQ76lssUQ2-47">
          <mxGeometry y="70" width="170" height="30" as="geometry" />
        </mxCell>
        <mxCell id="GPqqSzToRLyQ76lssUQ2-50" value="FALTAS" style="text;strokeColor=none;fillColor=none;align=left;verticalAlign=middle;spacingLeft=4;spacingRight=4;overflow=hidden;points=[[0,0.5],[1,0.5]];portConstraint=eastwest;rotatable=0;whiteSpace=wrap;html=1;" vertex="1" parent="GPqqSzToRLyQ76lssUQ2-47">
          <mxGeometry y="100" width="170" height="30" as="geometry" />
        </mxCell>
        <mxCell id="GPqqSzToRLyQ76lssUQ2-51" value="HORAS_NEGATIVAS" style="text;strokeColor=none;fillColor=none;align=left;verticalAlign=middle;spacingLeft=4;spacingRight=4;overflow=hidden;points=[[0,0.5],[1,0.5]];portConstraint=eastwest;rotatable=0;whiteSpace=wrap;html=1;" vertex="1" parent="GPqqSzToRLyQ76lssUQ2-47">
          <mxGeometry y="130" width="170" height="30" as="geometry" />
        </mxCell>
        <mxCell id="GPqqSzToRLyQ76lssUQ2-53" value="VALE_TRANSPORTES" style="text;strokeColor=none;fillColor=none;align=left;verticalAlign=middle;spacingLeft=4;spacingRight=4;overflow=hidden;points=[[0,0.5],[1,0.5]];portConstraint=eastwest;rotatable=0;whiteSpace=wrap;html=1;" vertex="1" parent="GPqqSzToRLyQ76lssUQ2-47">
          <mxGeometry y="160" width="170" height="30" as="geometry" />
        </mxCell>
      </root>
    </mxGraphModel>
  </diagram>
</mxfile>
